<svg width="8" height="89" viewBox="0 0 8 89" fill="none" xmlns="http://www.w3.org/2000/svg">
<path d="M4.5 1C4.5 0.723858 4.27614 0.5 4 0.5C3.72386 0.5 3.5 0.723858 3.5 1L4.5 1ZM3.64644 88.3536C3.8417 88.5488 4.15829 88.5488 4.35355 88.3536L7.53553 85.1716C7.73079 84.9763 7.73079 84.6597 7.53553 84.4645C7.34027 84.2692 7.02369 84.2692 6.82842 84.4645L4 87.2929L1.17157 84.4645C0.976307 84.2692 0.659725 84.2692 0.464462 84.4645C0.2692 84.6597 0.2692 84.9763 0.464462 85.1716L3.64644 88.3536ZM3.5 1L3.5 88L4.5 88L4.5 1L3.5 1Z" fill="#121E42"/>
</svg>
